<mxfile host="app.diagrams.net" agent="Mozilla/5.0 (Windows NT 10.0; Win64; x64) AppleWebKit/537.36 (KHTML, like Gecko) Chrome/137.0.0.0 Safari/537.36" version="27.1.1">
  <diagram name="Page-1" id="c4acf3e9-155e-7222-9cf6-157b1a14988f">
    <mxGraphModel dx="3339" dy="2298" grid="1" gridSize="10" guides="1" tooltips="1" connect="1" arrows="1" fold="1" page="1" pageScale="1" pageWidth="850" pageHeight="1400" background="#ffffff" math="0" shadow="0">
      <root>
        <mxCell id="0" />
        <mxCell id="1" parent="0" />
        <mxCell id="0Trdpa9B81bJb4oL63DD-2" value="&lt;p style=&quot;margin:0px;margin-top:4px;text-align:center;&quot;&gt;&lt;b&gt;Wydarzenie&lt;/b&gt;&lt;/p&gt;&lt;hr size=&quot;1&quot; style=&quot;border-style:solid;&quot;&gt;&lt;p style=&quot;margin:0px;margin-left:4px;&quot;&gt;# idWydarzenia: Integer&lt;/p&gt;&lt;p style=&quot;margin:0px;margin-left:4px;&quot;&gt;- nazwa: String&lt;/p&gt;&lt;p style=&quot;margin:0px;margin-left:4px;&quot;&gt;- rodzaj: String&lt;/p&gt;&lt;p style=&quot;margin:0px;margin-left:4px;&quot;&gt;- dataKoncaObstawiania: Date&lt;/p&gt;&lt;p style=&quot;margin:0px;margin-left:4px;&quot;&gt;- czyZakonczony: Boolean&lt;/p&gt;&lt;p style=&quot;margin:0px;margin-left:4px;&quot;&gt;- wygrany: String&lt;/p&gt;&lt;hr size=&quot;1&quot; style=&quot;border-style:solid;&quot;&gt;&lt;p style=&quot;margin:0px;margin-left:4px;&quot;&gt;+ dodajWydarzenie()&lt;/p&gt;&lt;p style=&quot;margin:0px;margin-left:4px;&quot;&gt;+ edytujWydarzenie()&lt;/p&gt;&lt;p style=&quot;margin:0px;margin-left:4px;&quot;&gt;+ usunWydarzenie()&lt;/p&gt;&lt;p style=&quot;margin:0px;margin-left:4px;&quot;&gt;+ sprawdzWynik()&lt;/p&gt;" style="verticalAlign=top;align=left;overflow=fill;html=1;whiteSpace=wrap;" parent="1" vertex="1">
          <mxGeometry x="-50" y="-838.75" width="190" height="222.5" as="geometry" />
        </mxCell>
        <mxCell id="0Trdpa9B81bJb4oL63DD-8" value="&lt;p style=&quot;margin:0px;margin-top:4px;text-align:center;&quot;&gt;&lt;b&gt;UÅ¼ytkownik&lt;/b&gt;&lt;/p&gt;&lt;hr size=&quot;1&quot; style=&quot;border-style:solid;&quot;&gt;&lt;p style=&quot;margin:0px;margin-left:4px;&quot;&gt;# eMail: String&lt;/p&gt;&lt;p style=&quot;margin:0px;margin-left:4px;&quot;&gt;# haslo: String&lt;/p&gt;&lt;p style=&quot;margin:0px;margin-left:4px;&quot;&gt;# rodzaj: String&lt;/p&gt;&lt;p style=&quot;margin:0px;margin-left:4px;&quot;&gt;- login: String&lt;/p&gt;&lt;hr size=&quot;1&quot; style=&quot;border-style:solid;&quot;&gt;&lt;p style=&quot;margin:0px;margin-left:4px;&quot;&gt;&lt;br&gt;&lt;/p&gt;" style="verticalAlign=top;align=left;overflow=fill;html=1;whiteSpace=wrap;" parent="1" vertex="1">
          <mxGeometry x="-570" y="-380" width="160" height="110" as="geometry" />
        </mxCell>
        <mxCell id="0Trdpa9B81bJb4oL63DD-9" value="&lt;p style=&quot;margin:0px;margin-top:4px;text-align:center;&quot;&gt;&lt;b&gt;Klient&lt;/b&gt;&lt;/p&gt;&lt;hr size=&quot;1&quot; style=&quot;border-style:solid;&quot;&gt;&lt;p style=&quot;margin: 0px 0px 0px 4px;&quot;&gt;# idKlienta: Integer&lt;/p&gt;&lt;p style=&quot;margin:0px;margin-left:4px;&quot;&gt;# dataUr: Date&lt;/p&gt;&lt;p style=&quot;margin:0px;margin-left:4px;&quot;&gt;# pesel: Integer&lt;/p&gt;&lt;p style=&quot;margin:0px;margin-left:4px;&quot;&gt;&lt;span style=&quot;background-color: transparent; color: light-dark(rgb(0, 0, 0), rgb(255, 255, 255));&quot;&gt;# imie: String&lt;/span&gt;&lt;/p&gt;&lt;p style=&quot;margin:0px;margin-left:4px;&quot;&gt;# nazwisko: String&lt;/p&gt;&lt;hr size=&quot;1&quot; style=&quot;border-style:solid;&quot;&gt;&lt;p style=&quot;margin:0px;margin-left:4px;&quot;&gt;&lt;br&gt;&lt;/p&gt;" style="verticalAlign=top;align=left;overflow=fill;html=1;whiteSpace=wrap;" parent="1" vertex="1">
          <mxGeometry x="-570" y="-787.5" width="160" height="120" as="geometry" />
        </mxCell>
        <mxCell id="0Trdpa9B81bJb4oL63DD-10" value="&lt;div&gt;&lt;br&gt;&lt;/div&gt;&lt;div&gt;&lt;br&gt;&lt;/div&gt;" style="endArrow=block;endSize=16;endFill=0;html=1;rounded=0;exitX=0.5;exitY=1;exitDx=0;exitDy=0;entryX=0.5;entryY=0;entryDx=0;entryDy=0;" parent="1" source="0Trdpa9B81bJb4oL63DD-9" target="0Trdpa9B81bJb4oL63DD-8" edge="1">
          <mxGeometry x="-0.0328" y="3" width="160" relative="1" as="geometry">
            <mxPoint x="-830" y="-690" as="sourcePoint" />
            <mxPoint x="-810" y="-590" as="targetPoint" />
            <Array as="points" />
            <mxPoint as="offset" />
          </mxGeometry>
        </mxCell>
        <mxCell id="0Trdpa9B81bJb4oL63DD-12" value="" style="endArrow=none;html=1;endSize=12;startArrow=none;startSize=14;startFill=0;edgeStyle=orthogonalEdgeStyle;rounded=0;" parent="1" source="0Trdpa9B81bJb4oL63DD-9" target="Z7Boop6sBVLntHY3Z_l6-2" edge="1">
          <mxGeometry relative="1" as="geometry">
            <mxPoint x="-430" y="-710" as="sourcePoint" />
            <mxPoint x="-430" y="-690" as="targetPoint" />
          </mxGeometry>
        </mxCell>
        <mxCell id="0Trdpa9B81bJb4oL63DD-13" value="1" style="edgeLabel;resizable=0;html=1;align=left;verticalAlign=top;" parent="0Trdpa9B81bJb4oL63DD-12" connectable="0" vertex="1">
          <mxGeometry x="-1" relative="1" as="geometry">
            <mxPoint x="5" y="-22" as="offset" />
          </mxGeometry>
        </mxCell>
        <mxCell id="0Trdpa9B81bJb4oL63DD-14" value="0..*" style="edgeLabel;resizable=0;html=1;align=right;verticalAlign=top;" parent="0Trdpa9B81bJb4oL63DD-12" connectable="0" vertex="1">
          <mxGeometry x="1" relative="1" as="geometry">
            <mxPoint x="25" as="offset" />
          </mxGeometry>
        </mxCell>
        <mxCell id="0Trdpa9B81bJb4oL63DD-15" value="&lt;p style=&quot;margin:0px;margin-top:4px;text-align:center;&quot;&gt;&lt;b&gt;Trader&lt;/b&gt;&lt;/p&gt;&lt;hr size=&quot;1&quot; style=&quot;border-style:solid;&quot;&gt;&lt;p style=&quot;margin:0px;margin-left:4px;&quot;&gt;&lt;span style=&quot;background-color: transparent; color: light-dark(rgb(0, 0, 0), rgb(255, 255, 255));&quot;&gt;# pesel: Integer&lt;/span&gt;&lt;/p&gt;&lt;p style=&quot;margin:0px;margin-left:4px;&quot;&gt;# idPracownika: Integer&lt;/p&gt;&lt;hr size=&quot;1&quot; style=&quot;border-style:solid;&quot;&gt;&lt;p style=&quot;margin:0px;margin-left:4px;&quot;&gt;&lt;br&gt;&lt;/p&gt;" style="verticalAlign=top;align=left;overflow=fill;html=1;whiteSpace=wrap;" parent="1" vertex="1">
          <mxGeometry x="-35" y="-370" width="160" height="90" as="geometry" />
        </mxCell>
        <mxCell id="0Trdpa9B81bJb4oL63DD-16" value="&lt;p style=&quot;margin:0px;margin-top:4px;text-align:center;&quot;&gt;&lt;b&gt;Krupier&lt;/b&gt;&lt;/p&gt;&lt;hr size=&quot;1&quot; style=&quot;border-style:solid;&quot;&gt;&lt;p style=&quot;margin:0px;margin-left:4px;&quot;&gt;&lt;span style=&quot;background-color: transparent; color: light-dark(rgb(0, 0, 0), rgb(255, 255, 255));&quot;&gt;# pesel: Integer&lt;/span&gt;&lt;/p&gt;&lt;p style=&quot;margin:0px;margin-left:4px;&quot;&gt;# idPracownika: Integer&lt;/p&gt;&lt;hr size=&quot;1&quot; style=&quot;border-style:solid;&quot;&gt;&lt;p style=&quot;margin:0px;margin-left:4px;&quot;&gt;&lt;br&gt;&lt;/p&gt;" style="verticalAlign=top;align=left;overflow=fill;html=1;whiteSpace=wrap;" parent="1" vertex="1">
          <mxGeometry x="-1240" y="-370" width="160" height="90" as="geometry" />
        </mxCell>
        <mxCell id="0Trdpa9B81bJb4oL63DD-18" value="&lt;div&gt;&lt;br&gt;&lt;/div&gt;&lt;div&gt;&lt;br&gt;&lt;/div&gt;" style="endArrow=block;endSize=16;endFill=0;html=1;rounded=0;exitX=0;exitY=0.5;exitDx=0;exitDy=0;entryX=1;entryY=0.5;entryDx=0;entryDy=0;" parent="1" source="0Trdpa9B81bJb4oL63DD-15" target="0Trdpa9B81bJb4oL63DD-8" edge="1">
          <mxGeometry x="-0.0328" y="3" width="160" relative="1" as="geometry">
            <mxPoint x="-550" y="-350" as="sourcePoint" />
            <mxPoint x="-415" y="-350" as="targetPoint" />
            <Array as="points" />
            <mxPoint as="offset" />
          </mxGeometry>
        </mxCell>
        <mxCell id="0Trdpa9B81bJb4oL63DD-19" value="&lt;div&gt;&lt;br&gt;&lt;/div&gt;&lt;div&gt;&lt;br&gt;&lt;/div&gt;" style="endArrow=block;endSize=16;endFill=0;html=1;rounded=0;exitX=1;exitY=0.5;exitDx=0;exitDy=0;entryX=0;entryY=0.5;entryDx=0;entryDy=0;" parent="1" source="0Trdpa9B81bJb4oL63DD-16" target="0Trdpa9B81bJb4oL63DD-8" edge="1">
          <mxGeometry x="-0.0328" y="3" width="160" relative="1" as="geometry">
            <mxPoint x="-345" y="-190" as="sourcePoint" />
            <mxPoint x="-590" y="-360" as="targetPoint" />
            <Array as="points" />
            <mxPoint as="offset" />
          </mxGeometry>
        </mxCell>
        <mxCell id="0Trdpa9B81bJb4oL63DD-20" value="&lt;p style=&quot;margin:0px;margin-top:4px;text-align:center;&quot;&gt;&lt;b&gt;Administrator&lt;/b&gt;&lt;/p&gt;&lt;hr size=&quot;1&quot; style=&quot;border-style:solid;&quot;&gt;&lt;p style=&quot;margin:0px;margin-left:4px;&quot;&gt;&lt;span style=&quot;background-color: transparent; color: light-dark(rgb(0, 0, 0), rgb(255, 255, 255));&quot;&gt;# idPracownika: Integer&lt;/span&gt;&lt;/p&gt;&lt;hr size=&quot;1&quot; style=&quot;border-style:solid;&quot;&gt;&lt;p style=&quot;margin:0px;margin-left:4px;&quot;&gt;+ przypiszUprawnienia()&lt;/p&gt;" style="verticalAlign=top;align=left;overflow=fill;html=1;whiteSpace=wrap;" parent="1" vertex="1">
          <mxGeometry x="-570" y="-220" width="160" height="95" as="geometry" />
        </mxCell>
        <mxCell id="0Trdpa9B81bJb4oL63DD-21" value="&lt;div&gt;&lt;br&gt;&lt;/div&gt;&lt;div&gt;&lt;br&gt;&lt;/div&gt;" style="endArrow=block;endSize=16;endFill=0;html=1;rounded=0;exitX=0.5;exitY=0;exitDx=0;exitDy=0;entryX=0.5;entryY=1;entryDx=0;entryDy=0;" parent="1" source="0Trdpa9B81bJb4oL63DD-20" target="0Trdpa9B81bJb4oL63DD-8" edge="1">
          <mxGeometry x="-0.0328" y="3" width="160" relative="1" as="geometry">
            <mxPoint x="-185" y="-345" as="sourcePoint" />
            <mxPoint x="-255" y="-345" as="targetPoint" />
            <Array as="points" />
            <mxPoint as="offset" />
          </mxGeometry>
        </mxCell>
        <mxCell id="0Trdpa9B81bJb4oL63DD-22" value="&lt;p style=&quot;margin:0px;margin-top:4px;text-align:center;&quot;&gt;&lt;b&gt;KartaKredytowa&lt;/b&gt;&lt;/p&gt;&lt;hr size=&quot;1&quot; style=&quot;border-style:solid;&quot;&gt;&lt;p style=&quot;margin:0px;margin-left:4px;&quot;&gt;# idKarty: Integer&lt;/p&gt;&lt;p style=&quot;margin:0px;margin-left:4px;&quot;&gt;- typKarty: String&lt;/p&gt;&lt;p style=&quot;margin:0px;margin-left:4px;&quot;&gt;- nrKarty: String&lt;/p&gt;&lt;p style=&quot;margin:0px;margin-left:4px;&quot;&gt;&lt;span style=&quot;background-color: transparent; color: light-dark(rgb(0, 0, 0), rgb(255, 255, 255));&quot;&gt;- dataWaznosci: Date&lt;/span&gt;&lt;/p&gt;&lt;p style=&quot;margin:0px;margin-left:4px;&quot;&gt;- limit: Single&lt;/p&gt;&lt;hr size=&quot;1&quot; style=&quot;border-style:solid;&quot;&gt;&lt;p style=&quot;margin:0px;margin-left:4px;&quot;&gt;&lt;br&gt;&lt;/p&gt;" style="verticalAlign=top;align=left;overflow=fill;html=1;whiteSpace=wrap;" parent="1" vertex="1">
          <mxGeometry x="-570" y="-990" width="160" height="130" as="geometry" />
        </mxCell>
        <mxCell id="0Trdpa9B81bJb4oL63DD-23" value="" style="endArrow=none;html=1;endSize=12;startArrow=none;startSize=14;startFill=0;edgeStyle=orthogonalEdgeStyle;rounded=0;" parent="1" source="0Trdpa9B81bJb4oL63DD-9" target="0Trdpa9B81bJb4oL63DD-22" edge="1">
          <mxGeometry relative="1" as="geometry">
            <mxPoint x="-515" y="-390" as="sourcePoint" />
            <mxPoint x="-515" y="-480" as="targetPoint" />
          </mxGeometry>
        </mxCell>
        <mxCell id="0Trdpa9B81bJb4oL63DD-24" value="1" style="edgeLabel;resizable=0;html=1;align=left;verticalAlign=top;" parent="0Trdpa9B81bJb4oL63DD-23" connectable="0" vertex="1">
          <mxGeometry x="-1" relative="1" as="geometry">
            <mxPoint x="-15" y="-22" as="offset" />
          </mxGeometry>
        </mxCell>
        <mxCell id="0Trdpa9B81bJb4oL63DD-25" value="0..*" style="edgeLabel;resizable=0;html=1;align=right;verticalAlign=top;" parent="0Trdpa9B81bJb4oL63DD-23" connectable="0" vertex="1">
          <mxGeometry x="1" relative="1" as="geometry">
            <mxPoint as="offset" />
          </mxGeometry>
        </mxCell>
        <mxCell id="0Trdpa9B81bJb4oL63DD-26" value="&lt;p style=&quot;margin:0px;margin-top:4px;text-align:center;&quot;&gt;&lt;b&gt;Kurs&lt;/b&gt;&lt;/p&gt;&lt;hr size=&quot;1&quot; style=&quot;border-style:solid;&quot;&gt;&lt;p style=&quot;margin:0px;margin-left:4px;&quot;&gt;# idKursu: Integer&lt;/p&gt;&lt;p style=&quot;margin:0px;margin-left:4px;&quot;&gt;- nazwaZwyciezcy: String&lt;/p&gt;&lt;p style=&quot;margin:0px;margin-left:4px;&quot;&gt;- aktualnyKurs: Double&lt;/p&gt;&lt;hr size=&quot;1&quot; style=&quot;border-style:solid;&quot;&gt;&lt;p style=&quot;margin:0px;margin-left:4px;&quot;&gt;+ aktualizujKurs()&lt;/p&gt;" style="verticalAlign=top;align=left;overflow=fill;html=1;whiteSpace=wrap;" parent="1" vertex="1">
          <mxGeometry x="265" y="-783.75" width="160" height="112.5" as="geometry" />
        </mxCell>
        <mxCell id="0Trdpa9B81bJb4oL63DD-27" value="" style="endArrow=none;html=1;endSize=12;startArrow=none;startSize=14;startFill=0;edgeStyle=orthogonalEdgeStyle;rounded=0;" parent="1" source="0Trdpa9B81bJb4oL63DD-26" target="0Trdpa9B81bJb4oL63DD-2" edge="1">
          <mxGeometry relative="1" as="geometry">
            <mxPoint x="-65" y="-730" as="sourcePoint" />
            <mxPoint x="-120" y="-520" as="targetPoint" />
          </mxGeometry>
        </mxCell>
        <mxCell id="0Trdpa9B81bJb4oL63DD-28" value="2..*" style="edgeLabel;resizable=0;html=1;align=left;verticalAlign=top;" parent="0Trdpa9B81bJb4oL63DD-27" connectable="0" vertex="1">
          <mxGeometry x="-1" relative="1" as="geometry">
            <mxPoint x="-25" y="-22" as="offset" />
          </mxGeometry>
        </mxCell>
        <mxCell id="0Trdpa9B81bJb4oL63DD-29" value="1" style="edgeLabel;resizable=0;html=1;align=right;verticalAlign=top;" parent="0Trdpa9B81bJb4oL63DD-27" connectable="0" vertex="1">
          <mxGeometry x="1" relative="1" as="geometry">
            <mxPoint x="25" y="-22" as="offset" />
          </mxGeometry>
        </mxCell>
        <mxCell id="0Trdpa9B81bJb4oL63DD-30" value="&lt;p style=&quot;margin:0px;margin-top:4px;text-align:center;&quot;&gt;&lt;b&gt;GraLosowa&lt;/b&gt;&lt;/p&gt;&lt;hr size=&quot;1&quot; style=&quot;border-style:solid;&quot;&gt;&lt;p style=&quot;margin: 0px 0px 0px 4px;&quot;&gt;# idGry: Integer&lt;/p&gt;&lt;p style=&quot;margin: 0px 0px 0px 4px;&quot;&gt;&lt;span style=&quot;background-color: transparent; color: light-dark(rgb(0, 0, 0), rgb(255, 255, 255));&quot;&gt;- dataGry: Date&lt;/span&gt;&lt;/p&gt;&lt;p style=&quot;margin:0px;margin-left:4px;&quot;&gt;-&amp;nbsp; nazwa: String&lt;/p&gt;&lt;p style=&quot;margin:0px;margin-left:4px;&quot;&gt;-&amp;nbsp; rodzaj: String&lt;/p&gt;&lt;p style=&quot;margin:0px;margin-left:4px;&quot;&gt;-&amp;nbsp; stawkaWejscia : Double&lt;/p&gt;&lt;p style=&quot;margin:0px;margin-left:4px;&quot;&gt;- wynik: String&lt;/p&gt;&lt;hr size=&quot;1&quot; style=&quot;border-style:solid;&quot;&gt;&lt;p style=&quot;margin:0px;margin-left:4px;&quot;&gt;+ rozpocznijGre()&lt;/p&gt;&lt;p style=&quot;margin:0px;margin-left:4px;&quot;&gt;+ wybierzRodzaj()&lt;/p&gt;&lt;p style=&quot;margin:0px;margin-left:4px;&quot;&gt;+ zakonczGre()&lt;/p&gt;&lt;p style=&quot;margin:0px;margin-left:4px;&quot;&gt;+ UstalWynik()&lt;/p&gt;" style="verticalAlign=top;align=left;overflow=fill;html=1;whiteSpace=wrap;" parent="1" vertex="1">
          <mxGeometry x="-1270" y="-825" width="220" height="195" as="geometry" />
        </mxCell>
        <mxCell id="0Trdpa9B81bJb4oL63DD-31" value="" style="endArrow=none;html=1;endSize=12;startArrow=none;startSize=14;startFill=0;edgeStyle=orthogonalEdgeStyle;rounded=0;" parent="1" source="0Trdpa9B81bJb4oL63DD-9" target="Z7Boop6sBVLntHY3Z_l6-7" edge="1">
          <mxGeometry relative="1" as="geometry">
            <mxPoint x="-510" y="-710" as="sourcePoint" />
            <mxPoint x="-700" y="-670" as="targetPoint" />
          </mxGeometry>
        </mxCell>
        <mxCell id="0Trdpa9B81bJb4oL63DD-32" value="1" style="edgeLabel;resizable=0;html=1;align=left;verticalAlign=top;" parent="0Trdpa9B81bJb4oL63DD-31" connectable="0" vertex="1">
          <mxGeometry x="-1" relative="1" as="geometry">
            <mxPoint x="-20" y="-22" as="offset" />
          </mxGeometry>
        </mxCell>
        <mxCell id="0Trdpa9B81bJb4oL63DD-33" value="0..*" style="edgeLabel;resizable=0;html=1;align=right;verticalAlign=top;" parent="0Trdpa9B81bJb4oL63DD-31" connectable="0" vertex="1">
          <mxGeometry x="1" relative="1" as="geometry">
            <mxPoint x="25" y="-22" as="offset" />
          </mxGeometry>
        </mxCell>
        <mxCell id="0Trdpa9B81bJb4oL63DD-34" value="&lt;p style=&quot;margin:0px;margin-top:4px;text-align:center;&quot;&gt;&lt;b&gt;Transakcja&lt;/b&gt;&lt;/p&gt;&lt;hr size=&quot;1&quot; style=&quot;border-style:solid;&quot;&gt;&lt;p style=&quot;margin:0px;margin-left:4px;&quot;&gt;# nrTransakcji: Integer&lt;span style=&quot;background-color: transparent; color: light-dark(rgb(0, 0, 0), rgb(255, 255, 255));&quot;&gt;&lt;/span&gt;&lt;/p&gt;&lt;p style=&quot;margin:0px;margin-left:4px;&quot;&gt;&lt;span style=&quot;background-color: transparent; color: light-dark(rgb(0, 0, 0), rgb(255, 255, 255));&quot;&gt;- kwota: Double&lt;/span&gt;&lt;/p&gt;&lt;p style=&quot;margin:0px;margin-left:4px;&quot;&gt;- rodzaj: String&lt;/p&gt;&lt;hr size=&quot;1&quot; style=&quot;border-style:solid;&quot;&gt;&lt;p style=&quot;margin:0px;margin-left:4px;&quot;&gt;+ wyplac()&lt;/p&gt;&lt;p style=&quot;margin:0px;margin-left:4px;&quot;&gt;+ wplac()&lt;/p&gt;" style="verticalAlign=top;align=left;overflow=fill;html=1;whiteSpace=wrap;" parent="1" vertex="1">
          <mxGeometry x="-595" y="-1330" width="210" height="130" as="geometry" />
        </mxCell>
        <mxCell id="0Trdpa9B81bJb4oL63DD-35" value="" style="endArrow=none;html=1;endSize=12;startArrow=none;startSize=14;startFill=0;edgeStyle=orthogonalEdgeStyle;rounded=0;exitX=0.5;exitY=0;exitDx=0;exitDy=0;entryX=0;entryY=0.5;entryDx=0;entryDy=0;" parent="1" source="Z7Boop6sBVLntHY3Z_l6-7" target="0Trdpa9B81bJb4oL63DD-34" edge="1">
          <mxGeometry relative="1" as="geometry">
            <mxPoint x="-490" y="-500" as="sourcePoint" />
            <mxPoint x="-630" y="-1250" as="targetPoint" />
            <Array as="points">
              <mxPoint x="-810" y="-1265" />
            </Array>
          </mxGeometry>
        </mxCell>
        <mxCell id="0Trdpa9B81bJb4oL63DD-36" value="1" style="edgeLabel;resizable=0;html=1;align=left;verticalAlign=top;" parent="0Trdpa9B81bJb4oL63DD-35" connectable="0" vertex="1">
          <mxGeometry x="-1" relative="1" as="geometry">
            <mxPoint x="-14" y="-25" as="offset" />
          </mxGeometry>
        </mxCell>
        <mxCell id="0Trdpa9B81bJb4oL63DD-37" value="1..*" style="edgeLabel;resizable=0;html=1;align=right;verticalAlign=top;" parent="0Trdpa9B81bJb4oL63DD-35" connectable="0" vertex="1">
          <mxGeometry x="1" relative="1" as="geometry">
            <mxPoint x="-15" as="offset" />
          </mxGeometry>
        </mxCell>
        <mxCell id="0Trdpa9B81bJb4oL63DD-38" value="" style="endArrow=none;html=1;endSize=12;startArrow=none;startSize=14;startFill=0;edgeStyle=orthogonalEdgeStyle;rounded=0;entryX=1;entryY=0.5;entryDx=0;entryDy=0;" parent="1" source="Z7Boop6sBVLntHY3Z_l6-2" target="0Trdpa9B81bJb4oL63DD-34" edge="1">
          <mxGeometry relative="1" as="geometry">
            <mxPoint x="-72.5" y="-1060" as="sourcePoint" />
            <mxPoint x="-310" y="-1280" as="targetPoint" />
            <Array as="points">
              <mxPoint x="-235" y="-1265" />
            </Array>
          </mxGeometry>
        </mxCell>
        <mxCell id="0Trdpa9B81bJb4oL63DD-39" value="1" style="edgeLabel;resizable=0;html=1;align=left;verticalAlign=top;" parent="0Trdpa9B81bJb4oL63DD-38" connectable="0" vertex="1">
          <mxGeometry x="-1" relative="1" as="geometry">
            <mxPoint x="-15" y="-28" as="offset" />
          </mxGeometry>
        </mxCell>
        <mxCell id="0Trdpa9B81bJb4oL63DD-40" value="1..*" style="edgeLabel;resizable=0;html=1;align=right;verticalAlign=top;" parent="0Trdpa9B81bJb4oL63DD-38" connectable="0" vertex="1">
          <mxGeometry x="1" relative="1" as="geometry">
            <mxPoint x="25" as="offset" />
          </mxGeometry>
        </mxCell>
        <mxCell id="eFoqV2do4yG0oz64s-Ky-2" value="" style="endArrow=none;html=1;endSize=12;startArrow=none;startSize=14;startFill=0;edgeStyle=orthogonalEdgeStyle;rounded=0;" parent="1" source="0Trdpa9B81bJb4oL63DD-34" target="0Trdpa9B81bJb4oL63DD-22" edge="1">
          <mxGeometry relative="1" as="geometry">
            <mxPoint x="-515" y="-580" as="sourcePoint" />
            <mxPoint x="-680" y="-1085" as="targetPoint" />
          </mxGeometry>
        </mxCell>
        <mxCell id="eFoqV2do4yG0oz64s-Ky-3" value="*" style="edgeLabel;resizable=0;html=1;align=left;verticalAlign=top;" parent="eFoqV2do4yG0oz64s-Ky-2" connectable="0" vertex="1">
          <mxGeometry x="-1" relative="1" as="geometry">
            <mxPoint x="-20" as="offset" />
          </mxGeometry>
        </mxCell>
        <mxCell id="eFoqV2do4yG0oz64s-Ky-4" value="1" style="edgeLabel;resizable=0;html=1;align=right;verticalAlign=top;" parent="eFoqV2do4yG0oz64s-Ky-2" connectable="0" vertex="1">
          <mxGeometry x="1" relative="1" as="geometry">
            <mxPoint x="-10" y="-29" as="offset" />
          </mxGeometry>
        </mxCell>
        <mxCell id="cbO-f-KLlXWGTyMljpcB-1" value="" style="endArrow=none;html=1;endSize=12;startArrow=none;startSize=14;startFill=0;edgeStyle=orthogonalEdgeStyle;rounded=0;" parent="1" source="0Trdpa9B81bJb4oL63DD-16" target="0Trdpa9B81bJb4oL63DD-30" edge="1">
          <mxGeometry relative="1" as="geometry">
            <mxPoint x="-630" y="-250" as="sourcePoint" />
            <mxPoint x="-630" y="-570" as="targetPoint" />
          </mxGeometry>
        </mxCell>
        <mxCell id="cbO-f-KLlXWGTyMljpcB-2" value="*" style="edgeLabel;resizable=0;html=1;align=left;verticalAlign=top;" parent="cbO-f-KLlXWGTyMljpcB-1" connectable="0" vertex="1">
          <mxGeometry x="-1" relative="1" as="geometry">
            <mxPoint x="3" y="-31" as="offset" />
          </mxGeometry>
        </mxCell>
        <mxCell id="cbO-f-KLlXWGTyMljpcB-3" value="*" style="edgeLabel;resizable=0;html=1;align=right;verticalAlign=top;" parent="cbO-f-KLlXWGTyMljpcB-1" connectable="0" vertex="1">
          <mxGeometry x="1" relative="1" as="geometry">
            <mxPoint x="13" as="offset" />
          </mxGeometry>
        </mxCell>
        <mxCell id="cbO-f-KLlXWGTyMljpcB-4" value="" style="endArrow=none;html=1;endSize=12;startArrow=none;startSize=14;startFill=0;edgeStyle=orthogonalEdgeStyle;rounded=0;" parent="1" source="0Trdpa9B81bJb4oL63DD-15" target="0Trdpa9B81bJb4oL63DD-2" edge="1">
          <mxGeometry relative="1" as="geometry">
            <mxPoint x="-280" y="-379" as="sourcePoint" />
            <mxPoint x="-280" y="-460" as="targetPoint" />
          </mxGeometry>
        </mxCell>
        <mxCell id="cbO-f-KLlXWGTyMljpcB-5" value="*" style="edgeLabel;resizable=0;html=1;align=left;verticalAlign=top;" parent="cbO-f-KLlXWGTyMljpcB-4" connectable="0" vertex="1">
          <mxGeometry x="-1" relative="1" as="geometry">
            <mxPoint x="3" y="-31" as="offset" />
          </mxGeometry>
        </mxCell>
        <mxCell id="cbO-f-KLlXWGTyMljpcB-6" value="*" style="edgeLabel;resizable=0;html=1;align=right;verticalAlign=top;" parent="cbO-f-KLlXWGTyMljpcB-4" connectable="0" vertex="1">
          <mxGeometry x="1" relative="1" as="geometry">
            <mxPoint x="13" as="offset" />
          </mxGeometry>
        </mxCell>
        <mxCell id="Z7Boop6sBVLntHY3Z_l6-2" value="&lt;p style=&quot;margin:0px;margin-top:4px;text-align:center;&quot;&gt;&lt;b&gt;ZakÅadBukmacherski&lt;/b&gt;&lt;/p&gt;&lt;hr size=&quot;1&quot; style=&quot;border-style:solid;&quot;&gt;&lt;p style=&quot;margin:0px;margin-left:4px;&quot;&gt;&lt;span style=&quot;background-color: transparent; color: light-dark(rgb(0, 0, 0), rgb(255, 255, 255));&quot;&gt;# idZakladu: Integer&lt;/span&gt;&lt;/p&gt;&lt;p style=&quot;margin:0px;margin-left:4px;&quot;&gt;&lt;span style=&quot;background-color: transparent; color: light-dark(rgb(0, 0, 0), rgb(255, 255, 255));&quot;&gt;- postawionaKwota: Double&lt;/span&gt;&lt;/p&gt;&lt;p style=&quot;margin:0px;margin-left:4px;&quot;&gt;&lt;span style=&quot;background-color: transparent; color: light-dark(rgb(0, 0, 0), rgb(255, 255, 255));&quot;&gt;- obstawionyWynik: String&lt;/span&gt;&lt;/p&gt;&lt;p style=&quot;margin:0px;margin-left:4px;&quot;&gt;- czyWygrany: Boolean&lt;/p&gt;&lt;hr size=&quot;1&quot; style=&quot;border-style:solid;&quot;&gt;&lt;p style=&quot;margin:0px;margin-left:4px;&quot;&gt;+ dodajZaklad()&lt;/p&gt;&lt;p style=&quot;margin:0px;margin-left:4px;&quot;&gt;+ edytujZaklad()&lt;/p&gt;&lt;p style=&quot;margin:0px;margin-left:4px;&quot;&gt;+ usunZaklad()&lt;/p&gt;" style="verticalAlign=top;align=left;overflow=fill;html=1;whiteSpace=wrap;" parent="1" vertex="1">
          <mxGeometry x="-330" y="-811.88" width="190" height="168.75" as="geometry" />
        </mxCell>
        <mxCell id="Z7Boop6sBVLntHY3Z_l6-3" value="" style="endArrow=none;html=1;endSize=12;startArrow=none;startSize=14;startFill=0;edgeStyle=orthogonalEdgeStyle;rounded=0;" parent="1" source="Z7Boop6sBVLntHY3Z_l6-2" target="0Trdpa9B81bJb4oL63DD-2" edge="1">
          <mxGeometry relative="1" as="geometry">
            <mxPoint x="15" y="-630" as="sourcePoint" />
            <mxPoint x="-110" y="-630" as="targetPoint" />
          </mxGeometry>
        </mxCell>
        <mxCell id="Z7Boop6sBVLntHY3Z_l6-4" value="0..*" style="edgeLabel;resizable=0;html=1;align=left;verticalAlign=top;" parent="Z7Boop6sBVLntHY3Z_l6-3" connectable="0" vertex="1">
          <mxGeometry x="-1" relative="1" as="geometry">
            <mxPoint x="10" y="-22" as="offset" />
          </mxGeometry>
        </mxCell>
        <mxCell id="Z7Boop6sBVLntHY3Z_l6-5" value="1" style="edgeLabel;resizable=0;html=1;align=right;verticalAlign=top;" parent="Z7Boop6sBVLntHY3Z_l6-3" connectable="0" vertex="1">
          <mxGeometry x="1" relative="1" as="geometry">
            <mxPoint x="-10" y="-22" as="offset" />
          </mxGeometry>
        </mxCell>
        <mxCell id="Z7Boop6sBVLntHY3Z_l6-6" value="0..*" style="edgeLabel;resizable=0;html=1;align=left;verticalAlign=top;" parent="1" connectable="0" vertex="1">
          <mxGeometry x="-350" y="-750" as="geometry" />
        </mxCell>
        <mxCell id="Z7Boop6sBVLntHY3Z_l6-7" value="&lt;p style=&quot;margin:0px;margin-top:4px;text-align:center;&quot;&gt;&lt;b&gt;ObstawienieGry&lt;/b&gt;&lt;/p&gt;&lt;hr size=&quot;1&quot; style=&quot;border-style:solid;&quot;&gt;&lt;p style=&quot;margin:0px;margin-left:4px;&quot;&gt;# idObsGry: Integer&lt;/p&gt;&lt;p style=&quot;margin:0px;margin-left:4px;&quot;&gt;-&amp;nbsp; postawionaKwota: Double&lt;/p&gt;&lt;p style=&quot;margin:0px;margin-left:4px;&quot;&gt;- obstawionyWynik: String&lt;/p&gt;&lt;p style=&quot;margin:0px;margin-left:4px;&quot;&gt;- czyWygrany: Boolean&lt;/p&gt;&lt;hr size=&quot;1&quot; style=&quot;border-style:solid;&quot;&gt;&lt;p style=&quot;margin:0px;margin-left:4px;&quot;&gt;+ dodajObstawienieGry()&lt;/p&gt;&lt;p style=&quot;margin:0px;margin-left:4px;&quot;&gt;+ edytujObstawienieGry()&lt;/p&gt;&lt;p style=&quot;margin:0px;margin-left:4px;&quot;&gt;+ usunObstawienieGry()&lt;/p&gt;" style="verticalAlign=top;align=left;overflow=fill;html=1;whiteSpace=wrap;" parent="1" vertex="1">
          <mxGeometry x="-920" y="-805" width="220" height="155" as="geometry" />
        </mxCell>
        <mxCell id="Z7Boop6sBVLntHY3Z_l6-9" value="" style="endArrow=none;html=1;endSize=12;startArrow=none;startSize=14;startFill=0;edgeStyle=orthogonalEdgeStyle;rounded=0;entryX=1;entryY=0.5;entryDx=0;entryDy=0;exitX=0;exitY=0.5;exitDx=0;exitDy=0;" parent="1" source="Z7Boop6sBVLntHY3Z_l6-7" target="0Trdpa9B81bJb4oL63DD-30" edge="1">
          <mxGeometry relative="1" as="geometry">
            <mxPoint x="-1000" y="-290" as="sourcePoint" />
            <mxPoint x="-1010" y="-660" as="targetPoint" />
          </mxGeometry>
        </mxCell>
        <mxCell id="Z7Boop6sBVLntHY3Z_l6-10" value="0..*" style="edgeLabel;resizable=0;html=1;align=left;verticalAlign=top;" parent="Z7Boop6sBVLntHY3Z_l6-9" connectable="0" vertex="1">
          <mxGeometry x="-1" relative="1" as="geometry">
            <mxPoint x="-20" y="-22" as="offset" />
          </mxGeometry>
        </mxCell>
        <mxCell id="Z7Boop6sBVLntHY3Z_l6-11" value="1" style="edgeLabel;resizable=0;html=1;align=right;verticalAlign=top;" parent="Z7Boop6sBVLntHY3Z_l6-9" connectable="0" vertex="1">
          <mxGeometry x="1" relative="1" as="geometry">
            <mxPoint x="13" y="-22" as="offset" />
          </mxGeometry>
        </mxCell>
      </root>
    </mxGraphModel>
  </diagram>
</mxfile>
